# AST/ASF file generated using VICON BodyLanguage
# -----------------------------------------------
:version 1.10
:name VICON
:units
  mass 1.0
  length 0.45
  angle deg
:documentation
   .ast/.asf automatically generated from VICON data using
   VICON BodyBuilder and BodyLanguage model FoxedUp or BRILLIANT.MOD
:root
   order TX TY TZ RX RY RZ
   axis XYZ
   position 0 0 0  
   orientation 0 0 0 
:bonedata
  begin
     id 1 
     name lhipjoint
     direction 0.560651 -0.75055 0.34978 
     length 2.44936 
     axis 0 0 0  XYZ
  end
  begin
     id 2 
     name lfemur
     direction 0.34202 -0.939693 0  
     length 7.42139  
     axis 0 0 20  XYZ
    dof rx ry rz
    limits (-160.0 20.0)
           (-70.0 70.0)
           (-60.0 70.0)
  end
  begin
     id 3 
     name ltibia
     direction 0.34202 -0.939693 0   
     length 7.75674   
     axis 0 0 20   XYZ
    dof rx
    limits (-10.0 170.0)
  end
  begin
     id 4 
     name lfoot
     direction 0.0925879 -0.254383 0.962661   
     length 2.38688   
     axis -90 7.62852e-016 20   XYZ
    dof rx rz
    limits (-45.0 90.0)
           (-70.0 20.0)
  end
  begin
     id 5 
     name ltoes
     direction 1.53567e-011 -4.21973e-011 1   
     length 1.19228   
     axis -90 7.62852e-016 20   XYZ
    dof rx
    limits (-90.0 20.0)
  end
  begin
     id 6 
     name rhipjoint
     direction -0.540087 -0.762838 0.355506   
     length 2.4099  
     axis 0 0 0  XYZ 
  end
  begin
     id 7 
     name rfemur
     direction -0.34202 -0.939693 0   
     length 7.70794   
     axis 0 0 -20   XYZ
    dof rx ry rz
    limits (-160.0 20.0)
           (-70.0 70.0)
           (-70.0 60.0)
  end
  begin
     id 8 
     name rtibia
     direction -0.34202 -0.939693 0   
     length 7.66106   
     axis 0 0 -20   XYZ
    dof rx
    limits (-10.0 170.0)
 end
 begin
     id 9 
     name rfoot
     direction -0.0830975 -0.228308 0.970036   
     length 2.4989  
     axis -90 -7.62852e-016 -20   XYZ
    dof rx rz
    limits (-45.0 90.0)
           (-20.0 70.0)
  end
  begin
     id 10 
     name rtoes
     direction -1.53517e-011 -4.21842e-011 1   
     length 1.2498   
     axis -90 -7.62852e-016 -20   XYZ
    dof rx
    limits (-90.0 20.0)
  end
  begin
     id 11 
     name lowerback
     direction 0.0266356 0.99402 -0.105896   
     length 2.1545   
     axis 0 0 0   XYZ
    dof rx ry rz
    limits (-20.0 45.0)
           (-30.0 30.0)
           (-30.0 30.0)
  end
  begin
     id 12 
     name upperback
     direction 0.0130547 0.999192 0.0380027   
     length 2.1434   
     axis 0 0 0   XYZ
    dof rx ry rz
    limits (-20.0 45.0)
           (-30.0 30.0)
           (-30.0 30.0)
  end
  begin
     id 13 
     name thorax
     direction 0.000590299 0.996288 0.0860764   
     length 2.19049   
     axis 0 0 0   XYZ
    dof rx ry rz
    limits (-20.0 45.0)
           (-30.0 30.0)
           (-30.0 30.0)
  end
  begin
     id 14 
     name lowerneck
     direction -0.0432125 0.978219 0.203028   
     length 1.62441   
     axis 0 0 0   XYZ
    dof rx ry rz
    limits (-20.0 45.0)
           (-30.0 30.0)
           (-30.0 30.0)
  end
  begin
     id 15 
     name upperneck
     direction -0.0192309 0.991699 -0.127138   
     length 1.66666   
     axis 0 0 0   XYZ
    dof rx ry rz
    limits (-20.0 45.0)
           (-30.0 30.0)
           (-30.0 30.0)
  end
  begin
     id 16
     name head
     direction -0.00434499 0.997882 -0.0649107  
     length 1.67142  
     axis 0 0 0   XYZ
    dof rx ry rz
    limits (-20.0 45.0)
           (-30.0 30.0)
           (-30.0 30.0)
  end
  begin
     id 17 
     name lclavicle
     direction 0.970351 0.240904 -0.0196058  
     length 4.04862  
     axis 0 0 0   XYZ
    dof ry rz
    limits (-20.0 10.0)
           (0.0 20.0)
  end
  begin
     id 18 
     name lhumerus
     direction 1 -4.4896e-011 -1.40911e-018   
     length 5.58345   
     axis 180 -30 -90   XYZ
    dof rx ry rz
    limits (-60.0 90.0)
           (-90.0 90.0)
           (-90.0 90.0)
  end
  begin
     id 19
     name lradius
     direction 1 -4.48968e-011 5.88912e-028   
     length 3.71087   
     axis 180 -30 -90   XYZ
    dof rx
    limits (-10.0 170.0)
  end
  begin
     id 20
     name lwrist
     direction 1 -4.48955e-011 -8.83775e-028   
     length 1.85544   
     axis 5.52448e-016 90 90   XYZ
    dof ry
    limits (-180.0 0.0)
 end
  begin
     id 21 
     name lhand
     direction 1 -4.49035e-011 -1.76755e-027   
     length 0.562322   
     axis 1.12785e-015 90 90   XYZ
    dof rx rz
    limits (-90.0 90.0)
           (-45.0 45.0)
  end
  begin
     id 22 
     name lfingers
     direction 1 -4.48824e-011 -3.5351e-027   
     length 0.453359   
     axis 2.2557e-015 90 90   XYZ
    dof rx
    limits (0.0 90.0)
  end
  begin
     id 23
     name lthumb
     direction 0.707107 -6.34888e-011 0.707107   
     length 0.650935   
     axis -90 45 2.85299e-015   XYZ
    dof rx rz
    limits (-45.0 45.0)
           (-45.0 45.0)
  end
  begin
     id 24 
     name rclavicle
     direction -0.96165 0.268562 -0.0557131   
     length 4.05446  
     axis 0 0 0   XYZ 
    dof ry rz
    limits (-10.0 20.0)
           (-20.0 0.0)
  end
  begin
     id 25 
     name rhumerus
     direction -1 -4.48957e-011 -3.36329e-027  
     length 5.20357   
     axis 180 30 90   XYZ
    dof rx ry rz
    limits (-90.0 60.0)
           (-90.0 90.0)
           (-90.0 90.0)
  end
  begin
     id 26 
     name rradius
     direction -1 -4.48974e-011 4.51441e-027   
     length 3.64937   
     axis 180 30 90   XYZ
    dof rx
    limits (-10.0 170.0)
  end
  begin
     id 27 
     name rwrist
     direction -1 -4.4896e-011 -8.83775e-028   
     length 1.82468   
     axis 5.52448e-016 -90 -90   XYZ
    dof ry
    limits (-180.0 0.0)
  end
  begin
     id 28
     name rhand
     direction -1 -4.48996e-011 -1.76755e-027   
     length 0.617996   
     axis 1.12785e-015 -90 -90   XYZ
    dof rx rz
    limits (-90.0 90.0)
           (-45.0 45.0)
  end
  begin
     id 29
     name rfingers
     direction -1 -4.48957e-011 -3.5351e-027   
     length 0.498244   
     axis 2.2557e-015 -90 -90   XYZ
    dof rx
    limits (0.0 90.0)
  end
  begin
     id 30
     name rthumb
     direction -0.707107 -6.34931e-011 0.707107   
     length 0.715382   
     axis -90 -45 -2.85299e-015   XYZ
    dof rx rz
    limits (-45.0 45.0)
           (-45.0 45.0)
  end
:hierarchy
  begin
    root lhipjoint rhipjoint lowerback
    lhipjoint lfemur
    lfemur ltibia
    ltibia lfoot
    lfoot ltoes
    rhipjoint rfemur
    rfemur rtibia
    rtibia rfoot
    rfoot rtoes
    lowerback upperback
    upperback thorax
    thorax lowerneck lclavicle rclavicle
    lowerneck upperneck
    upperneck head
    lclavicle lhumerus
    lhumerus lradius
    lradius lwrist
    lwrist lhand lthumb
    lhand lfingers
    rclavicle rhumerus
    rhumerus rradius
    rradius rwrist
    rwrist rhand rthumb
    rhand rfingers
  end

#!OML:ASF H:\ManfredETheater\Project 1\Capture day 2\Session 1\Male1.ASF
:FULLY-SPECIFIED
:DEGREES
101
root -4.83525 17.9255 7.42726 11.1059 11.4137 3.81605
lowerback 8.26818 -2.46529 -3.45696
upperback -1.39401 -3.56856 1.38625
thorax -5.79788 -1.61822 3.85487
lowerneck -27.9706 2.78909 1.15985
upperneck 15.1684 4.67227 -5.9747
head 9.51559 1.50505 -1.5555
rclavicle -2.5842e-014 -2.06736e-014
rhumerus -70.7748 1.73496 -84.0369
rradius 95.9567
rwrist -4.94232
rhand -29.9749 10.5338
rfingers 7.12502
rthumb -3.29323 -19.4205
lclavicle -2.5842e-014 -2.06736e-014
lhumerus -25.264 -11.1824 88.6095
lradius 130.371
lwrist 25.1335
lhand -15.9039 -7.17169
lfingers 7.12502
lthumb 10.2929 22.5565
rfemur -50.3931 -0.194622 10.4915
rtibia 42.3225
rfoot -2.55966 -4.87988
rtoes -25.4879
lfemur 13.4676 -3.70714 -28.4867
ltibia 23.9976
lfoot 21.9883 -6.51739
ltoes -7.34786
102
root -4.72716 17.9467 8.03885 10.9137 11.4571 4.08512
lowerback 8.2403 -2.4856 -3.49116
upperback -1.33444 -3.60289 1.28954
thorax -5.72027 -1.63871 3.77273
lowerneck -28.0333 2.79879 1.0954
upperneck 15.3565 4.7316 -6.01185
head 9.59534 1.5182 -1.54919
rclavicle 3.49861e-014 -2.0276e-014
rhumerus -70.7411 1.39522 -83.86
rradius 96.3758
rwrist -4.66656
rhand -29.9537 10.4496
rfingers 7.12502
rthumb -3.2727 -19.505
lclavicle 3.49861e-014 -2.0276e-014
lhumerus -26.1453 -12.8115 88.9892
lradius 129.631
lwrist 23.4407
lhand -15.9731 -7.55929
lfingers 7.12502
lthumb 10.2261 22.1722
rfemur -49.648 0.0249824 10.0319
rtibia 39.9214
rfoot -2.61535 -5.09577
rtoes -27.1227
lfemur 13.7166 -4.35176 -28.9064
ltibia 26.1243
lfoot 21.5777 -7.06872
ltoes -8.35412
103
root -4.6215 17.9443 8.64059 10.6645 11.6096 4.37966
lowerback 8.3502 -2.50712 -3.56386
upperback -1.26981 -3.64672 1.20125
thorax -5.71202 -1.66035 3.7303
lowerneck -27.9797 2.80718 1.10633
upperneck 15.4313 4.77379 -6.1424
head 9.62003 1.52153 -1.59078
rclavicle -5.4964e-014 7.15625e-015
rhumerus -70.6027 1.08689 -83.7262
rradius 96.7811
rwrist -4.12589
rhand -29.8461 10.3902
rfingers 7.12502
rthumb -3.1688 -19.566
lclavicle -5.4964e-014 7.15625e-015
lhumerus -27.1817 -14.37 89.5238
lradius 128.664
lwrist 22.1195
lhand -16.1135 -7.71127
lfingers 7.12502
lthumb 10.0907 22.0268
rfemur -48.9322 0.0327426 9.70782
rtibia 38.4276
rfoot -2.54341 -5.6172
rtoes -28.3285
lfemur 13.5359 -5.05682 -29.3273
ltibia 29.1956
lfoot 20.6467 -6.75123
ltoes -8.47088
104
root -4.51992 17.9304 9.23615 10.3093 11.883 4.65829
lowerback 8.5809 -2.49611 -3.68783
upperback -1.12122 -3.65235 1.16516
thorax -5.68058 -1.66239 3.77072
lowerneck -28.0328 2.74166 0.997953
upperneck 15.479 4.75846 -6.26434
head 9.64764 1.49032 -1.61919
rclavicle -1.97791e-014 3.57812e-015
rhumerus -70.2214 0.769131 -83.5427
rradius 97.1481
rwrist -3.45077
rhand -29.6798 10.1911
rfingers 7.12502
rthumb -3.00821 -19.7674
lclavicle -1.97791e-014 3.57812e-015
lhumerus -28.1676 -15.8389 90.2452
lradius 127.454
lwrist 21.3099
lhand -16.0401 -7.75629
lfingers 7.12502
lthumb 10.1614 21.9783
rfemur -48.1555 0.0121199 9.4324
rtibia 37.7308
rfoot -2.04157 -6.24758
rtoes -28.5929
lfemur 13.0241 -5.59013 -29.6067
ltibia 32.9164
lfoot 19.5414 -6.35236
ltoes -7.88153
105
root -4.42267 17.9056 9.82898 9.89466 12.2356 4.79628
lowerback 8.87449 -2.44157 -3.72076
upperback -0.953943 -3.58852 1.19621
thorax -5.67221 -1.63166 3.82492
lowerneck -28.1184 2.60701 0.735488
upperneck 15.5348 4.69004 -6.29816
head 9.67511 1.43478 -1.60034
rclavicle 1.25234e-014 2.38542e-015
rhumerus -69.6659 0.442239 -83.33
rradius 97.3791
rwrist -2.60772
rhand -30.2797 10.7755
rfingers 7.12502
rthumb -3.58761 -19.1741
lclavicle 1.25234e-014 2.38542e-015
lhumerus -29.1803 -17.2248 91.1956
lradius 126.019
lwrist 20.9941
lhand -15.8903 -7.67594
lfingers 7.12502
lthumb 10.306 22.0515
rfemur -47.3012 0.0649209 9.33674
rtibia 37.6878
rfoot -1.21997 -6.76521
rtoes -28.4577
lfemur 12.22 -6.02602 -29.6221
ltibia 37.042
lfoot 18.3282 -6.21722
ltoes -6.67258
106
root -4.32531 17.8709 10.4201 9.38832 12.7067 4.80861
lowerback 9.21585 -2.43531 -3.64302
upperback -0.771043 -3.57546 1.27313
thorax -5.67321 -1.62863 3.87356
lowerneck -28.0689 2.50184 0.538716
upperneck 15.5212 4.63794 -6.36444
head 9.65876 1.39145 -1.60082
rclavicle -6.27166e-014 6.36111e-015
rhumerus -68.9744 0.290183 -83.2327
rradius 97.524
rwrist -1.88391
rhand -30.4888 11.0046
rfingers 7.12502
rthumb -3.78948 -18.9415
lclavicle -6.27166e-014 6.36111e-015
lhumerus -30.2886 -18.2971 92.2034
lradius 124.429
lwrist 20.9544
lhand -15.6218 -7.56509
lfingers 7.12502
lthumb 10.565 22.1494
rfemur -46.2589 0.0802049 9.37788
rtibia 38.1115
rfoot -0.516321 -6.88136
rtoes -27.5416
lfemur 11.186 -6.36071 -29.4106
ltibia 41.3887
lfoot 17.0767 -6.7934
ltoes -5.78614
